<svg width="20" height="20" viewBox="0 0 20 20" fill="none" xmlns="http://www.w3.org/2000/svg">
<g clip-path="url(#clip0_3534_8)">
<mask id="path-1-inside-1_3534_8" fill="white">
<path fill-rule="evenodd" clip-rule="evenodd" d="M16.8422 11.1579C18.5863 9.41384 18.5863 6.58617 16.8422 4.84211C15.0982 3.09805 12.2705 3.09805 10.5264 4.84211L10.0001 5.36843L9.47381 4.8421C7.72975 3.09805 4.90207 3.09805 3.15802 4.8421C1.41396 6.58616 1.41396 9.41383 3.15801 11.1579L3.68434 11.6842L10.0001 18L16.8422 11.1579Z"/>
</mask>
<path d="M16.8422 4.84211L17.9029 3.78145L16.8422 4.84211ZM16.8422 11.1579L17.9029 12.2186L16.8422 11.1579ZM10.5264 4.84211L9.46579 3.78145L9.46579 3.78145L10.5264 4.84211ZM10.0001 5.36843L8.93947 6.42909L10.0001 7.48975L11.0608 6.42909L10.0001 5.36843ZM3.15801 11.1579L4.21867 10.0972L4.21867 10.0972L3.15801 11.1579ZM3.68434 11.6842L2.62368 12.7449L2.62368 12.7449L3.68434 11.6842ZM10.0001 18L8.93947 19.0607L10.0001 20.1213L11.0608 19.0607L10.0001 18ZM15.7816 5.90277C16.9398 7.06104 16.9398 8.93897 15.7816 10.0972L17.9029 12.2186C20.2327 9.88872 20.2327 6.11129 17.9029 3.78145L15.7816 5.90277ZM11.5871 5.90277C12.7454 4.7445 14.6233 4.7445 15.7816 5.90277L17.9029 3.78145C15.5731 1.45161 11.7956 1.4516 9.46579 3.78145L11.5871 5.90277ZM11.0608 6.42909L11.5871 5.90277L9.46579 3.78145L8.93947 4.30776L11.0608 6.42909ZM8.41315 5.90276L8.93947 6.42909L11.0608 4.30776L10.5345 3.78144L8.41315 5.90276ZM4.21868 5.90276C5.37695 4.74449 7.25488 4.74449 8.41315 5.90276L10.5345 3.78144C8.20462 1.4516 4.4272 1.4516 2.09736 3.78144L4.21868 5.90276ZM4.21867 10.0972C3.06041 8.93896 3.06041 7.06104 4.21868 5.90276L2.09736 3.78144C-0.232483 6.11128 -0.232492 9.8887 2.09735 12.2185L4.21867 10.0972ZM4.745 10.6236L4.21867 10.0972L2.09735 12.2185L2.62368 12.7449L4.745 10.6236ZM11.0608 16.9393L4.745 10.6236L2.62368 12.7449L8.93947 19.0607L11.0608 16.9393ZM15.7816 10.0972L8.93947 16.9393L11.0608 19.0607L17.9029 12.2186L15.7816 10.0972Z" fill="#0C76B2" mask="url(#path-1-inside-1_3534_8)"/>
</g>
<defs>
<clipPath id="clip0_3534_8">
<rect width="20" height="20" fill="white"/>
</clipPath>
</defs>
</svg>
